<?xml version="1.0" encoding="UTF-8" standalone="no"?>
<svg
   xmlns:dc="http://purl.org/dc/elements/1.1/"
   xmlns:cc="http://creativecommons.org/ns#"
   xmlns:rdf="http://www.w3.org/1999/02/22-rdf-syntax-ns#"
   xmlns:svg="http://www.w3.org/2000/svg"
   xmlns="http://www.w3.org/2000/svg"
   viewBox="0 0 692.64001 151.84"
   height="151.84"
   width="692.64001"
   xml:space="preserve"
   id="svg2"
   version="1.1"><metadata
     id="metadata8"><rdf:RDF><cc:Work
         rdf:about=""><dc:format>image/svg+xml</dc:format><dc:type
           rdf:resource="http://purl.org/dc/dcmitype/StillImage" /></cc:Work></rdf:RDF></metadata><defs
     id="defs6" /><g
     transform="matrix(1.3333333,0,0,-1.3333333,0,151.84)"
     id="g10"><g
       transform="scale(0.1)"
       id="g12"><path
         id="path14"
         style="fill:#e41d25;fill-opacity:1;fill-rule:nonzero;stroke:none"
         d="M 199.477,11.8203 C 129.73,11.8203 59.9805,8.62891 0,5.44922 1.39453,11.8203 2.78906,18.1914 2.78906,24.5586 c 0,6.3711 -1.39453,12.75 -2.78906,20.7109 13.9492,0 34.8711,-4.7812 53.0078,-4.7812 18.1367,0 34.875,4.7812 34.875,31.8515 5.5781,111.4802 6.9766,310.5432 6.9766,508.0232 0,192.7 -1.3985,382.219 -6.9766,487.327 0,22.29 -16.7383,28.67 -34.875,28.67 -19.5312,0 -41.8515,-6.38 -53.0078,-6.38 1.39453,7.97 2.78906,12.75 2.78906,19.11 0,6.37 -1.39453,12.75 -2.78906,20.71 59.9805,-3.19 129.73,-6.37 199.477,-6.37 59.988,0 119.964,1.59 172.972,6.37 -1.39,-6.37 -1.39,-14.34 -1.39,-20.71 0,-6.36 0,-12.73 1.39,-19.11 -13.941,0 -34.871,6.38 -51.609,6.38 -16.738,0 -30.688,-4.78 -32.086,-27.08 -8.367,-162.44 -12.555,-326.475 -12.555,-490.51 0,-170.399 4.188,-340.809 12.555,-508.0317 1.398,-25.4688 16.738,-31.8399 34.875,-31.8399 16.742,0 34.879,6.3711 48.82,6.3711 -1.39,-7.9609 -1.39,-14.3398 -1.39,-20.7109 0,-6.3672 0,-12.7383 1.39,-19.10938 -53.008,4.78128 -112.984,6.37108 -172.972,6.37108" /><path
         id="path16"
         style="fill:#e41d25;fill-opacity:1;fill-rule:nonzero;stroke:none"
         d="m 1108.97,108.969 c 0,-38.2307 1.4,-73.2698 4.18,-103.51978 -110.2,4.78128 -217.607,6.37108 -323.623,6.37108 -124.156,0 -262.257,-1.5898 -389.195,-6.37108 1.398,4.78128 2.789,11.15238 2.789,19.10938 0,6.3711 -1.391,12.75 -2.789,20.7109 16.738,-1.5976 34.871,-6.3711 50.219,-6.3711 16.738,0 30.687,7.961 32.082,41.4024 4.183,113.0702 5.582,307.3672 5.582,500.0622 0,189.516 -1.399,375.844 -6.977,482.547 0,27.07 -15.343,33.45 -32.082,33.45 -16.738,0 -34.875,-6.38 -48.824,-6.38 1.398,7.97 2.789,12.75 2.789,19.11 0,6.37 -1.391,12.75 -2.789,20.71 78.113,-4.78 167.395,-6.37 242.727,-6.37 143.675,0 284.57,6.37 431.041,6.37 -2.79,-31.85 -5.58,-73.26 -5.58,-116.26 0,-82.81 6.97,-175.181 13.95,-234.106 -4.19,0 -6.98,1.593 -11.16,1.593 -5.58,0 -9.77,-1.593 -15.35,-3.183 -30.69,275.516 -139.495,313.736 -316.651,313.736 -25.11,0 -43.246,-1.6 -48.825,-7.97 -6.976,-6.37 -8.371,-19.11 -9.765,-41.4 -5.582,-130.593 -9.766,-262.776 -9.766,-394.956 0,-49.371 4.184,-52.555 34.871,-52.555 140.895,0 177.164,70.074 177.164,246.848 4.184,-1.594 11.157,-1.594 16.739,-1.594 5.582,0 9.765,0 15.347,1.594 -6.976,-95.555 -11.164,-189.52 -11.164,-285.07 0,-82.813 2.789,-165.625 11.164,-250.032 -4.183,1.594 -9.765,1.594 -15.347,1.594 -5.582,0 -11.164,0 -16.739,-1.594 0,213.399 -43.246,257.996 -177.164,257.996 -33.476,0 -34.871,-4.781 -34.871,-50.964 0,-138.551 4.184,-277.11 9.766,-415.6567 2.789,-50.9609 4.183,-52.5508 107.41,-52.5508 198.086,0 299.921,98.7385 304.101,345.5825 4.19,-1.594 9.77,-1.594 12.56,-1.594 5.58,0 12.55,0 16.73,1.594 -5.57,-66.895 -12.55,-183.145 -12.55,-281.883" /><path
         id="path18"
         style="fill:#231f20;fill-opacity:1;fill-rule:nonzero;stroke:none"
         d="m 1652.14,58.6719 c 0,-18.0508 0.65,-34.6016 1.95,-48.89065 -51.48,2.25005 -101.66,3.00005 -151.19,3.00005 -58,0 -122.52,-0.75 -181.83,-3.00005 0.65,2.25005 1.31,5.25785 1.31,9.01955 0,3.0078 -0.66,6.0312 -1.31,9.789 7.82,-0.7578 16.29,-3.0078 23.47,-3.0078 7.81,0 14.33,3.7578 14.98,19.5469 1.96,53.4219 2.61,145.1951 2.61,236.2111 0,89.519 -0.65,177.535 -3.26,227.937 0,12.789 -7.17,15.797 -14.99,15.797 -7.82,0 -16.29,-3.008 -22.81,-3.008 0.65,3.762 1.31,6.016 1.31,9.024 0,3.012 -0.66,6.019 -1.31,9.781 36.5,-2.258 78.21,-3.008 113.4,-3.008 67.13,0 132.95,3.008 201.37,3.008 -1.3,-15.043 -2.6,-34.605 -2.6,-54.91 0,-39.121 3.26,-82.746 6.52,-110.586 -1.96,0 -3.26,0.75 -5.22,0.75 -2.61,0 -4.56,-0.75 -7.17,-1.504 -14.33,130.141 -65.17,148.199 -147.93,148.199 -11.73,0 -20.21,-0.754 -22.81,-3.765 -3.26,-3.008 -3.92,-9.024 -4.56,-19.555 -2.61,-61.687 -4.57,-124.125 -4.57,-186.559 0,-23.32 1.96,-24.824 16.29,-24.824 65.83,0 82.77,33.098 82.77,116.602 1.96,-0.762 5.22,-0.762 7.82,-0.762 2.61,0 4.57,0 7.17,0.762 -3.26,-45.137 -5.21,-89.531 -5.21,-134.66 0,-39.121 1.3,-78.231 5.21,-118.102 -1.96,0.75 -4.56,0.75 -7.17,0.75 -2.6,0 -5.21,0 -7.82,-0.75 0,100.801 -20.2,121.863 -82.77,121.863 -15.64,0 -16.29,-2.257 -16.29,-24.07 0,-65.449 1.96,-130.891 4.57,-196.3398 1.3,-24.0704 1.95,-24.8204 50.18,-24.8204 92.54,0 140.11,46.6407 142.07,163.2382 1.95,-0.754 4.56,-0.754 5.86,-0.754 2.61,0 5.87,0 7.82,0.754 -2.6,-31.601 -5.86,-86.519 -5.86,-133.1561" /><path
         id="path20"
         style="fill:#231f20;fill-opacity:1;fill-rule:nonzero;stroke:none"
         d="m 1966.28,13.5391 c -29.97,0 -60.6,-1.5078 -86.67,-3.75785 0.65,3.75785 0.65,6.75785 0.65,9.01955 0,3.0078 0,5.2695 -0.65,9.0312 3.91,0 13.69,-3 21.5,-3 6.52,0 11.74,1.5 11.74,8.2696 0,3.0078 -0.66,6.0078 -1.96,10.5195 -17.59,51.168 -37.14,101.5669 -58,151.2149 -7.17,17.297 -7.17,21.816 -9.77,26.328 0,0 -2.61,4.512 -5.87,4.512 -1.3,0 -2.61,-1.504 -4.56,-4.512 -3.26,-6.777 -9.13,-20.312 -12.39,-27.078 -35.19,-72.977 -61.26,-133.9063 -61.26,-151.2149 0,-13.5313 5.22,-16.5391 11.74,-16.5391 5.21,0 11.08,1.5 17.59,1.5 -1.3,-3.7617 -1.3,-6.7734 -1.3,-9.7812 0,-3.0117 0,-5.2695 1.3,-8.26955 -17.59,2.25005 -35.19,3.75785 -54.09,3.75785 -18.9,0 -38.45,-1.5078 -56.05,-3.75785 1.31,3.00005 1.31,6.00785 1.31,8.26955 0,3.0078 -0.65,6.0195 -1.31,9.7812 5.87,-0.75 11.74,-1.5 16.95,-1.5 7.82,0 14.99,2.2578 20.85,12.0274 9.78,15.8008 48.23,79.7426 95.15,173.7736 8.47,17.301 12.38,28.59 12.38,39.871 0,8.269 -2.6,17.305 -7.82,29.336 -33.88,76.738 -69.08,151.953 -102.97,229.441 -5.21,11.285 -11.08,14.293 -18.24,14.293 -4.56,0 -10.43,-1.504 -16.95,-2.254 0.65,3.008 1.31,6.016 1.31,9.024 0,2.258 -0.66,5.265 -1.31,9.027 25.42,-2.258 53.44,-3.008 81.46,-3.008 33.89,0 67.78,1.504 97.76,3.008 -1.3,-3.762 -1.3,-6.769 -1.3,-9.781 0,-2.254 0,-5.262 1.3,-8.27 -3.91,0 -15.64,3.758 -24.76,3.758 -7.17,0 -13.04,-2.254 -13.04,-9.027 0,-1.504 0.65,-3.008 1.3,-5.266 13.69,-40.621 29.33,-81.238 45.62,-121.863 7.83,-19.563 7.83,-21.067 11.74,-29.336 0.65,-2.266 2.6,-3.008 4.56,-3.008 1.95,0 4.56,1.504 5.21,2.246 5.21,10.535 9.12,21.074 13.68,31.602 33.24,70.711 48.23,105.312 48.23,121.113 0,9.027 -5.21,11.285 -14.34,11.285 -4.56,0 -10.42,-0.754 -16.94,-1.504 1.31,3.758 1.31,6.016 1.31,8.27 0,3.012 0,5.269 -1.31,9.781 16.29,-2.258 32.58,-3.008 50.18,-3.008 18.9,0 38.45,1.504 56.7,3.008 -1.3,-3.762 -1.3,-6.769 -1.3,-9.781 0,-2.254 0,-5.262 1.3,-8.27 -8.48,0.75 -14.99,3.008 -20.85,3.008 -6.52,0 -12.39,-3.008 -18.9,-15.047 -14.99,-24.82 -50.84,-90.273 -74.95,-137.664 -9.78,-19.551 -14.34,-31.594 -14.34,-42.871 0,-9.785 3.26,-19.57 9.12,-32.355 35.85,-84.258 74.95,-167 112.1,-249.7426 8.47,-18.0586 12.38,-21.8164 20.85,-21.8164 4.56,0 10.43,1.5 19.55,1.5 -0.64,-3.7617 -0.64,-6.7734 -0.64,-9.7812 0,-3.7617 0,-6.7695 0.64,-8.26955 -28.02,2.25005 -59.95,3.75785 -91.24,3.75785" /><path
         id="path22"
         style="fill:#231f20;fill-opacity:1;fill-rule:nonzero;stroke:none"
         d="m 2414.69,58.6719 c 0,-18.0508 0.66,-34.6016 1.96,-48.89065 -51.49,2.25005 -101.67,3.00005 -151.2,3.00005 -58,0 -122.52,-0.75 -181.82,-3.00005 0.65,2.25005 1.3,5.25785 1.3,9.01955 0,3.0078 -0.65,6.0312 -1.3,9.789 7.82,-0.7578 16.29,-3.0078 23.46,-3.0078 7.82,0 14.34,3.7578 14.99,19.5469 1.95,53.4219 2.6,145.1951 2.6,236.2111 0,89.519 -0.65,177.535 -3.25,227.937 0,12.789 -7.17,15.797 -14.99,15.797 -7.83,0 -16.3,-3.008 -22.81,-3.008 0.65,3.762 1.3,6.016 1.3,9.024 0,3.012 -0.65,6.019 -1.3,9.781 36.49,-2.258 78.2,-3.008 113.39,-3.008 67.13,0 132.95,3.008 201.38,3.008 -1.31,-15.043 -2.6,-34.605 -2.6,-54.91 0,-39.121 3.26,-82.746 6.51,-110.586 -1.95,0 -3.25,0.75 -5.22,0.75 -2.6,0 -4.56,-0.75 -7.16,-1.504 -14.34,130.141 -65.17,148.199 -147.94,148.199 -11.73,0 -20.2,-0.754 -22.81,-3.765 -3.26,-3.008 -3.91,-9.024 -4.56,-19.555 -2.61,-61.687 -4.56,-124.125 -4.56,-186.559 0,-23.32 1.95,-24.824 16.29,-24.824 65.82,0 82.77,33.098 82.77,116.602 1.95,-0.762 5.21,-0.762 7.81,-0.762 2.61,0 4.57,0 7.18,0.762 -3.27,-45.137 -5.22,-89.531 -5.22,-134.66 0,-39.121 1.31,-78.231 5.22,-118.102 -1.96,0.75 -4.57,0.75 -7.18,0.75 -2.6,0 -5.21,0 -7.81,-0.75 0,100.801 -20.21,121.863 -82.77,121.863 -15.64,0 -16.29,-2.257 -16.29,-24.07 0,-65.449 1.95,-130.891 4.56,-196.3398 1.3,-24.0704 1.95,-24.8204 50.18,-24.8204 92.54,0 140.12,46.6407 142.07,163.2382 1.96,-0.754 4.56,-0.754 5.87,-0.754 2.61,0 5.87,0 7.82,0.754 -2.61,-31.601 -5.87,-86.519 -5.87,-133.1561" /><path
         id="path24"
         style="fill:#231f20;fill-opacity:1;fill-rule:nonzero;stroke:none"
         d="m 2682.57,0 c -134.9,0 -196.8,98.5508 -196.8,273.066 0,186.559 75.59,275.329 203.33,275.329 58.65,0 91.88,-18.809 122.52,-41.375 -3.27,-23.321 -5.22,-56.418 -5.22,-86.512 0,-21.063 0.66,-39.871 1.95,-53.406 -1.29,0 -3.9,0 -6.51,0 -1.95,0 -4.56,0 -6.52,0 -4.56,103.054 -46.27,167 -103.62,167 -71.03,0 -108.83,-35.356 -108.83,-255.016 0,-213.6446 24.11,-264.0469 103.62,-264.0469 56.04,0 104.27,71.4726 108.83,185.8129 2.6,-0.754 4.57,-0.754 7.18,-0.754 1.95,0 3.9,0 5.85,0.754 -1.95,-16.551 -2.6,-36.114 -2.6,-56.418 0,-34.602 2.6,-70.7152 5.87,-91.7738 C 2780.98,24.832 2744.49,0 2682.57,0" /><path
         id="path26"
         style="fill:#231f20;fill-opacity:1;fill-rule:nonzero;stroke:none"
         d="m 3212.44,525.828 c -21.51,0 -24.11,-29.344 -24.77,-188.062 -0.65,-51.914 -0.65,-103.821 -0.65,-155.723 0,-112.0938 -0.66,-179.78128 -136.86,-179.78128 -117.96,0 -160.97,37.59768 -160.97,168.50028 0,72.968 1.3,145.937 1.3,218.91 0,45.887 0,89.516 -1.3,122.613 -0.65,10.535 -5.86,13.543 -12.38,13.543 -5.87,0 -13.69,-2.258 -19.55,-3.008 0.65,3.758 1.3,6.016 1.3,9.024 0,2.258 -0.65,5.265 -1.3,9.027 24.11,-1.504 52.13,-2.258 80.16,-2.258 27.37,0 54.74,0.754 78.2,2.258 -0.65,-3.762 -0.65,-6.769 -0.65,-9.781 0,-3.008 0,-5.262 0.65,-8.27 -5.87,0.75 -13.68,3.758 -20.2,3.758 -6.52,0 -11.73,-3.008 -11.73,-15.043 -0.66,-63.195 -2.61,-127.89 -2.61,-203.867 0,-41.367 0.65,-86.504 1.95,-136.152 3.92,-116.6058 19.55,-138.4144 92.55,-138.4144 91.23,0 95.15,54.9101 95.15,121.8634 0,76.726 0,134.656 -0.66,179.793 -1.95,160.976 -5.87,191.82 -33.23,191.82 -6.52,0 -13.69,-1.504 -22.16,-3.758 0,2.254 0,5.262 0,8.27 0,3.765 0,6.773 0,9.781 15.64,-2.258 35.19,-3.008 54.74,-3.008 21.51,0 43.67,1.504 61.26,3.008 -0.65,-3.762 -1.3,-6.769 -1.3,-9.781 0,-2.254 0.65,-5.262 1.3,-8.27 -7.17,1.504 -13.03,3.008 -18.24,3.008" /><path
         id="path28"
         style="fill:#231f20;fill-opacity:1;fill-rule:nonzero;stroke:none"
         d="m 3602.83,372.363 c -1.96,0 -3.91,-0.75 -5.86,-1.504 -6.53,103.817 -44.97,151.961 -88.64,151.961 h -11.72 c -10.43,0 -11.74,-0.754 -12.39,-12.789 -3.26,-66.953 -4.57,-147.441 -4.57,-227.187 0,-88.008 1.97,-174.524 4.57,-240.7229 0.65,-13.5313 7.17,-16.5391 15.64,-16.5391 7.82,0 16.3,3.0078 23.47,3.0078 -0.66,-3.0078 -1.31,-6.7812 -1.31,-9.789 0,-3.0117 0.65,-6.0195 1.31,-9.01955 -24.77,2.25005 -52.14,3.00005 -79.52,3.00005 -31.28,0 -63.21,-1.5 -91.24,-3.00005 0.66,3.00005 0.66,6.75785 0.66,9.76955 0,3.7695 0,6.7812 -0.66,9.039 6.53,0 14.99,-3.0078 22.16,-3.0078 8.48,0 15.65,3.0078 15.65,16.5391 2.6,52.668 3.26,146.6879 3.26,239.2189 0,89.519 -0.66,178.285 -3.26,228.691 0,10.528 -1.96,12.789 -13.04,12.789 h -7.17 c -45.61,0 -89.93,-56.422 -93.85,-151.961 -2.6,0.754 -4.56,0.754 -6.51,0.754 -1.95,0 -3.91,0 -6.51,-0.754 2.6,30.09 3.9,59.426 3.9,88.016 0,27.086 -1.3,54.164 -3.9,81.996 55.39,-2.258 121.86,-3.008 187.03,-3.008 57.35,0 114.05,0.75 159.67,3.008 -1.96,-28.586 -3.26,-57.172 -3.26,-85.758 0,-28.578 1.3,-56.422 3.26,-84.254 -2.61,0.754 -4.57,1.504 -7.17,1.504" /><path
         id="path30"
         style="fill:#231f20;fill-opacity:1;fill-rule:nonzero;stroke:none"
         d="m 3730.61,12.7813 c -32.59,0 -65.18,-1.5 -93.19,-3.00005 0.64,3.00005 1.3,6.00785 1.3,9.01955 0,3.0078 -0.66,6.0312 -1.3,9.789 6.51,0 16.29,-2.2578 24.76,-2.2578 8.47,0 16.29,2.2578 16.29,15.0391 2.61,52.6602 3.26,146.6879 3.26,239.9689 0,91.023 -0.65,180.547 -3.26,230.195 0,10.531 -7.82,13.539 -16.29,13.539 -9.13,0 -19.56,-3.008 -24.76,-3.008 0.64,3.762 1.3,6.016 1.3,9.024 0,3.012 -0.66,6.019 -1.3,9.781 28.01,-1.504 60.6,-3.008 93.19,-3.008 28.02,0 56.05,0.75 80.81,3.008 -0.65,-3.008 -0.65,-6.769 -0.65,-9.781 0,-3.008 0,-6.016 0.65,-9.024 -6.51,0 -16.3,3.008 -24.11,3.008 -7.82,0 -14.35,-2.254 -14.99,-12.789 -3.92,-76.726 -5.87,-154.207 -5.87,-231.695 0,-80.492 1.95,-160.981 5.87,-239.9689 0.64,-12.0313 7.81,-15.0391 16.29,-15.0391 7.82,0 16.3,3.0078 22.81,3.0078 -0.65,-3.7578 -0.65,-6.7812 -0.65,-9.789 0,-3.0117 0,-6.0195 0.65,-9.01955 -24.76,2.25005 -52.79,3.00005 -80.81,3.00005" /><path
         id="path32"
         style="fill:#231f20;fill-opacity:1;fill-rule:nonzero;stroke:none"
         d="m 4186.17,526.578 c -17.6,0 -22.16,-18.808 -44.96,-97.035 -16.96,-58.684 -46.28,-170.02 -110.79,-428.793 -7.17,2.26172 -8.48,3.01172 -10.43,3.01172 -1.96,0 -3.91,-0.75 -11.73,-3.01172 -26.08,123.371 -95.15,375.375 -132.3,511.535 -3.26,11.285 -9.77,14.293 -16.94,14.293 -7.17,0 -14.99,-2.254 -21.52,-3.008 0.66,3.008 1.31,6.016 1.31,8.274 0,3.011 -0.65,6.019 -1.31,9.781 28.69,-2.258 61.26,-3.012 93.85,-3.012 28.03,0 55.4,0.754 80.16,3.012 -1.3,-3.762 -1.3,-6.77 -1.3,-9.781 0,-2.258 0,-5.266 1.3,-8.274 -4.56,0 -14.98,3.008 -24.11,3.008 -7.82,0 -14.34,-2.254 -14.34,-9.777 0,-1.504 0,-3.008 0,-4.516 17.6,-85.008 42.36,-184.305 69.08,-279.09 3.91,-14.289 11.08,-42.871 11.08,-57.922 0,-3.757 0.65,-6.765 3.26,-6.765 2.61,0 9.12,25.578 10.43,30.086 2.61,10.531 35.19,139.914 55.39,230.949 8.48,37.605 13.04,61.68 13.04,76.723 0,15.043 -5.22,20.312 -16.29,20.312 -5.22,0 -12.38,-0.75 -20.21,-3.008 0,2.258 0,5.266 0,9.024 0,3.011 0,6.019 0,9.031 16.95,-1.508 35.84,-3.012 54.75,-3.012 16.94,0 33.23,0.754 47.57,3.012 -0.66,-3.762 -0.66,-6.77 -0.66,-9.781 0,-3.008 0,-5.266 0.66,-8.274 -5.86,1.504 -11.08,3.008 -14.99,3.008" /><path
         id="path34"
         style="fill:#231f20;fill-opacity:1;fill-rule:nonzero;stroke:none"
         d="m 4558.32,58.6719 c 0,-18.0508 0.65,-34.6016 1.96,-48.89065 -51.49,2.25005 -101.67,3.00005 -151.2,3.00005 -58,0 -122.52,-0.75 -181.83,-3.00005 0.66,2.25005 1.31,5.25785 1.31,9.01955 0,3.0078 -0.65,6.0312 -1.31,9.789 7.82,-0.7578 16.3,-3.0078 23.47,-3.0078 7.82,0 14.33,3.7578 14.99,19.5469 1.95,53.4219 2.61,145.1951 2.61,236.2111 0,89.519 -0.66,177.535 -3.27,227.937 0,12.789 -7.16,15.797 -14.99,15.797 -7.82,0 -16.29,-3.008 -22.81,-3.008 0.66,3.762 1.31,6.016 1.31,9.024 0,3.012 -0.65,6.019 -1.31,9.781 36.5,-2.258 78.2,-3.008 113.4,-3.008 67.13,0 132.95,3.008 201.38,3.008 -1.3,-15.043 -2.61,-34.605 -2.61,-54.91 0,-39.121 3.26,-82.746 6.51,-110.586 -1.95,0 -3.25,0.75 -5.2,0.75 -2.61,0 -4.57,-0.75 -7.18,-1.504 -14.34,130.141 -65.17,148.199 -147.93,148.199 -11.73,0 -20.2,-0.754 -22.81,-3.765 -3.26,-3.008 -3.91,-9.024 -4.56,-19.555 -2.61,-61.687 -4.56,-124.125 -4.56,-186.559 0,-23.32 1.95,-24.824 16.29,-24.824 65.82,0 82.76,33.098 82.76,116.602 1.96,-0.762 5.21,-0.762 7.82,-0.762 2.61,0 4.56,0 7.17,0.762 -3.25,-45.137 -5.22,-89.531 -5.22,-134.66 0,-39.121 1.31,-78.231 5.22,-118.102 -1.95,0.75 -4.56,0.75 -7.17,0.75 -2.61,0 -5.21,0 -7.82,-0.75 0,100.801 -20.2,121.863 -82.76,121.863 -15.64,0 -16.29,-2.257 -16.29,-24.07 0,-65.449 1.95,-130.891 4.56,-196.3398 1.3,-24.0704 1.95,-24.8204 50.18,-24.8204 92.54,0 140.11,46.6407 142.07,163.2382 1.96,-0.754 4.56,-0.754 5.86,-0.754 2.61,0 5.87,0 7.82,0.754 -2.6,-31.601 -5.86,-86.519 -5.86,-133.1561" /><path
         id="path36"
         style="fill:none;stroke:#231f20;stroke-width:10;stroke-linecap:butt;stroke-linejoin:miter;stroke-miterlimit:4;stroke-dasharray:none;stroke-opacity:1"
         d="M 1228.07,1130.29 V 9.87109" /><path
         id="path38"
         style="fill:#231f20;fill-opacity:1;fill-rule:nonzero;stroke:none"
         d="m 1401.23,598.117 c -34.2,0 -68.4,-1.508 -97.82,-3.023 0.69,3.023 1.37,6.051 1.37,9.078 0,3.023 -0.68,6.043 -1.37,9.828 6.84,0 17.1,-2.27 25.99,-2.27 8.9,0 17.11,2.27 17.11,15.125 2.73,52.938 3.42,147.461 3.42,241.239 0,91.504 -0.69,181.496 -3.42,231.406 0,10.59 -8.21,13.61 -17.11,13.61 -9.57,0 -20.51,-3.02 -25.99,-3.02 0.69,3.77 1.37,6.04 1.37,9.07 0,3.02 -0.68,6.05 -1.37,9.83 29.42,-1.51 63.62,-3.03 97.82,-3.03 29.41,0 58.83,0.76 84.82,3.03 -0.68,-3.03 -0.68,-6.81 -0.68,-9.83 0,-3.03 0,-6.05 0.68,-9.07 -6.84,0 -17.09,3.02 -25.31,3.02 -8.21,0 -15.05,-2.27 -15.73,-12.86 -4.1,-77.13 -6.15,-155.023 -6.15,-232.914 0,-80.918 2.05,-161.832 6.15,-241.234 0.68,-12.102 8.21,-15.129 17.1,-15.129 8.21,0 17.1,3.027 23.94,3.027 -0.68,-3.785 -0.68,-6.805 -0.68,-9.828 0,-3.027 0,-6.055 0.68,-9.078 -25.99,2.269 -55.41,3.023 -84.82,3.023" /><path
         id="path40"
         style="fill:#231f20;fill-opacity:1;fill-rule:nonzero;stroke:none"
         d="m 1887.59,1113.86 c -20.52,0 -24.63,-3.02 -27.37,-128.555 -0.68,-15.121 -0.68,-31 -0.68,-46.883 0,-116.457 1.37,-233.672 2.74,-350.133 -5.47,0 -21.21,-1.516 -24.63,-4.535 -4.79,15.879 -13,34.027 -21.2,50.664 -63.62,126.293 -148.44,265.437 -220.95,393.242 -4.79,8.31 -5.48,18.14 -8.9,26.46 -2.05,3.78 -3.42,5.29 -4.78,5.29 -2.05,0 -2.74,-3.02 -2.74,-6.8 0,-6.81 2.74,-19.66 2.74,-19.66 V 876.406 c 0,-79.398 0,-144.437 1.36,-164.093 5.48,-97.555 8.9,-100.583 36.94,-100.583 4.79,0 10.95,0.758 17.1,1.512 v -18.148 c -19.15,1.515 -42.41,2.269 -64.3,2.269 -20.52,0 -40.36,-0.754 -56.09,-2.269 v 18.148 c 8.21,-1.512 14.37,-2.269 19.16,-2.269 18.46,0 22.57,6.05 24.62,102.093 0.68,43.86 0.68,124.02 0.68,192.082 v 43.86 c 0,52.182 -0.68,120.242 -6.84,149.732 -2.73,12.1 -7.52,15.12 -15.73,15.12 -6.84,0 -15.05,-2.26 -21.89,-3.02 0.68,3.02 1.37,6.05 1.37,8.32 0,3.02 -0.69,6.05 -1.37,9.83 16.42,-2.27 39.67,-3.03 63.62,-3.03 26.67,0 54.04,1.52 74.56,3.03 38.31,-82.43 113.55,-201.912 168.96,-300.982 2.73,-5.293 10.95,-25.707 11.63,-29.492 1.37,-3.778 3.42,-6.047 4.79,-6.047 1.36,0 2.05,1.511 2.05,6.047 0,62.769 -0.69,125.539 -2.74,188.3 -5.47,124.024 -7.52,126.294 -31.46,126.294 -5.48,0 -11.63,-0.75 -19.84,-2.27 0.68,3.78 1.37,6.05 1.37,9.07 0,2.27 -0.69,5.3 -1.37,9.08 15.05,-2.27 34.89,-3.03 54.73,-3.03 21.2,0 43.09,1.52 61.56,3.03 -0.69,-3.78 -1.37,-6.81 -1.37,-9.83 0,-2.27 0,-5.3 1.37,-8.32 -6.84,1.52 -13,3.02 -17.1,3.02" /><path
         id="path42"
         style="fill:#231f20;fill-opacity:1;fill-rule:nonzero;stroke:none"
         d="m 2301.42,1114.62 c -18.47,0 -23.26,-18.91 -47.2,-97.55 -17.79,-58.988 -48.57,-170.906 -116.29,-431.054 -7.52,2.273 -8.9,3.031 -10.95,3.031 -2.05,0 -4.1,-0.758 -12.31,-3.031 -27.36,124.027 -99.87,377.359 -138.86,514.234 -3.42,11.35 -10.26,14.37 -17.79,14.37 -7.52,0 -15.73,-2.26 -22.57,-3.02 0.68,3.02 1.37,6.05 1.37,8.31 0,3.03 -0.69,6.05 -1.37,9.84 30.1,-2.27 64.3,-3.03 98.5,-3.03 29.41,0 58.14,0.76 84.14,3.03 -1.37,-3.79 -1.37,-6.81 -1.37,-9.84 0,-2.26 0,-5.29 1.37,-8.31 -4.79,0 -15.73,3.02 -25.31,3.02 -8.21,0 -15.05,-2.26 -15.05,-9.83 0,-1.51 0,-3.02 0,-4.54 18.47,-85.45 44.47,-185.273 72.51,-280.555 4.11,-14.371 11.63,-43.105 11.63,-58.23 0,-3.781 0.68,-6.805 3.42,-6.805 2.74,0 9.58,25.707 10.95,30.25 2.73,10.586 36.93,140.653 58.14,232.16 8.89,37.81 13.68,62.01 13.68,77.13 0,15.13 -5.47,20.42 -17.1,20.42 -5.47,0 -13,-0.76 -21.2,-3.02 0,2.26 0,5.29 0,9.07 0,3.03 0,6.05 0,9.08 17.78,-1.52 37.62,-3.03 57.45,-3.03 17.79,0 34.89,0.76 49.94,3.03 -0.69,-3.79 -0.69,-6.81 -0.69,-9.84 0,-3.02 0,-5.29 0.69,-8.31 -6.16,1.51 -11.63,3.02 -15.73,3.02" /><path
         id="path44"
         style="fill:#231f20;fill-opacity:1;fill-rule:nonzero;stroke:none"
         d="m 2695.43,644.25 c 0,-18.148 0.69,-34.785 2.06,-49.156 -54.05,2.269 -106.72,3.023 -158.71,3.023 -60.87,0 -128.6,-0.754 -190.85,-3.023 0.68,2.269 1.37,5.293 1.37,9.078 0,3.023 -0.69,6.043 -1.37,9.828 8.21,-0.758 17.1,-3.027 24.62,-3.027 8.21,0 15.05,3.785 15.74,19.664 2.06,53.691 2.74,145.953 2.74,237.457 0,89.988 -0.68,178.466 -3.43,229.136 0,12.86 -7.52,15.88 -15.73,15.88 -8.21,0 -17.1,-3.02 -23.94,-3.02 0.68,3.77 1.37,6.04 1.37,9.07 0,3.02 -0.69,6.05 -1.37,9.83 38.31,-2.27 82.08,-3.03 119.03,-3.03 70.46,0 139.54,3.03 211.37,3.03 -1.37,-15.13 -2.74,-34.79 -2.74,-55.2 0,-39.33 3.42,-83.188 6.85,-111.173 -2.05,0 -3.43,0.758 -5.48,0.758 -2.74,0 -4.79,-0.758 -7.52,-1.512 -15.05,130.827 -68.41,148.977 -155.28,148.977 -12.32,0 -21.21,-0.75 -23.95,-3.78 -3.42,-3.02 -4.1,-9.08 -4.79,-19.66 -2.73,-62.01 -4.78,-124.783 -4.78,-187.545 0,-23.449 2.05,-24.957 17.1,-24.957 69.09,0 86.87,33.274 86.87,117.211 2.06,-0.75 5.47,-0.75 8.22,-0.75 2.73,0 4.78,0 7.52,0.75 -3.42,-45.371 -5.47,-89.988 -5.47,-135.359 0,-39.324 1.37,-78.648 5.47,-118.73 -2.05,0.757 -4.79,0.757 -7.52,0.757 -2.75,0 -5.48,0 -8.22,-0.757 0,101.335 -21.21,122.507 -86.87,122.507 -16.42,0 -17.1,-2.265 -17.1,-24.195 0,-65.793 2.05,-131.582 4.78,-197.375 1.37,-24.199 2.06,-24.957 52.68,-24.957 97.13,0 147.07,46.887 149.12,164.102 2.05,-0.758 4.79,-0.758 6.15,-0.758 2.75,0 6.17,0 8.22,0.758 -2.74,-31.762 -6.16,-86.969 -6.16,-133.852" /><path
         id="path46"
         style="fill:#231f20;fill-opacity:1;fill-rule:nonzero;stroke:none"
         d="m 2893.78,585.266 c -47.88,0 -86.87,16.636 -122.44,35.543 1.37,12.855 2.05,27.976 2.05,43.863 0,37.805 -3.41,79.398 -6.83,106.625 1.36,-0.758 4.1,-0.758 6.15,-0.758 2.73,0 5.47,0.758 8.21,1.512 12.31,-99.067 62.25,-167.125 129.97,-167.125 57.45,0 90.98,34.789 90.98,102.844 0,145.195 -229.16,96.796 -229.16,279.046 0,94.534 51.31,152.004 153.92,152.004 41.03,0 79.34,-12.1 110.12,-32.52 -2.73,-20.41 -4.1,-50.66 -4.1,-77.13 0,-15.88 0.68,-31.01 1.37,-40.838 -2.74,0 -4.79,0 -6.15,0 -2.06,0 -4.12,0 -8.22,-0.758 -4.1,80.916 -51.31,135.366 -101.24,135.366 -52.67,0 -80.71,-35.54 -80.71,-93.77 0,-125.537 235.31,-83.186 235.31,-276.779 0,-100.578 -58.83,-167.125 -179.23,-167.125" /><path
         id="path48"
         style="fill:#231f20;fill-opacity:1;fill-rule:nonzero;stroke:none"
         d="m 3443.07,959.598 c -2.06,0 -4.11,-0.758 -6.16,-1.516 -6.84,104.358 -47.2,152.758 -93.03,152.758 h -12.31 c -10.95,0 -12.32,-0.75 -13,-12.86 -3.42,-67.3 -4.79,-148.218 -4.79,-228.375 0,-88.48 2.05,-175.445 4.79,-241.992 0.68,-13.613 7.53,-16.64 16.42,-16.64 8.21,0 17.09,3.027 24.62,3.027 -0.68,-3.027 -1.36,-6.805 -1.36,-9.828 0,-3.027 0.68,-6.055 1.36,-9.078 -25.99,2.269 -54.72,3.023 -83.45,3.023 -32.83,0 -66.35,-1.508 -95.76,-3.023 0.68,3.023 0.68,6.808 0.68,9.832 0,3.781 0,6.804 -0.68,9.074 6.83,0 15.73,-3.027 23.25,-3.027 8.89,0 16.41,3.027 16.41,16.64 2.74,52.938 3.43,147.461 3.43,240.481 0,89.988 -0.69,179.226 -3.43,229.886 0,10.59 -2.05,12.86 -13.68,12.86 h -7.52 c -47.88,0 -94.4,-56.72 -98.5,-152.758 -2.74,0.758 -4.79,0.758 -6.84,0.758 -2.06,0 -4.11,0 -6.85,-0.758 2.74,30.25 4.11,59.738 4.11,88.478 0,27.23 -1.37,54.45 -4.11,82.43 58.15,-2.27 127.92,-3.03 196.33,-3.03 60.2,0 119.71,0.76 167.59,3.03 -2.05,-28.74 -3.42,-57.47 -3.42,-86.21 0,-28.73 1.37,-56.717 3.42,-84.698 -2.73,0.758 -4.78,1.516 -7.52,1.516" /><path
         id="path50"
         style="fill:#231f20;fill-opacity:1;fill-rule:nonzero;stroke:none"
         d="m 3913.68,598.117 c -30.1,0 -60.2,-1.508 -88.25,-3.023 0.69,3.023 1.37,6.051 1.37,9.078 0,3.023 -0.68,6.043 -1.37,9.828 7.53,-0.758 15.05,-3.785 21.22,-3.785 6.83,0 11.63,3.785 11.63,17.398 2.73,52.938 3.41,147.461 3.41,240.481 0,65.035 -2.05,91.504 -2.05,155.786 0,15.88 3.42,27.22 3.42,31.76 0,2.26 -1.37,3.02 -2.73,3.02 -4.11,0 -13.68,-27.22 -14.37,-31 -16.41,-44.621 -73.2,-256.363 -116.3,-410.637 -2.05,-8.316 -4.1,-18.906 -6.15,-31.757 -4.78,0.75 -8.9,0.75 -13,0.75 -2.73,0 -6.15,0 -8.88,-0.75 -1.38,13.609 -5.48,23.441 -7.53,31.004 -32.15,116.457 -84.14,261.652 -131.34,409.12 -4.79,12.85 -6.15,27.98 -6.15,27.98 -1.37,3.78 -2.75,5.29 -6.17,5.29 -2.05,0 -2.05,-0.76 -2.05,-31 0,-37.058 0,-74.113 0,-110.41 0,-43.863 0,-87.727 0.69,-131.582 1.36,-53.699 2.05,-108.148 10.26,-161.082 2.05,-12.098 9.57,-15.121 19.15,-15.121 9.58,0 21.21,3.023 28.05,3.777 -0.69,-3.027 -0.69,-6.047 -0.69,-9.07 0,-3.027 0,-6.055 0.69,-9.078 -15.73,1.515 -31.47,2.269 -54.04,2.269 -23.26,0 -47.2,-0.754 -67.04,-2.269 0.69,2.269 0.69,5.293 0.69,8.32 0,3.781 0,6.801 -0.69,9.828 6.16,-0.754 14.37,-3.027 21.89,-3.027 7.53,0 13.68,2.273 15.05,13.617 6.84,52.938 7.53,107.383 7.53,161.078 0,47.641 0.68,119.481 0.68,183.004 0,64.286 -4.1,119.486 -4.79,129.316 -0.69,13.61 -7.52,16.63 -16.42,16.63 -7.52,0 -16.42,-2.26 -23.94,-3.02 0.69,3.02 1.37,6.05 1.37,8.32 0,3.02 -0.68,6.05 -1.37,9.83 14.37,-1.51 38.3,-2.27 64.3,-2.27 23.26,0 59.51,0.76 83.46,2.27 23.25,-89.99 73.19,-234.427 109.44,-344.838 2.05,-6.05 4.8,-12.101 7.53,-12.101 2.05,0 4.1,3.023 6.15,9.074 22.58,83.184 59.52,223.085 86.19,296.445 3.43,9.83 9.58,37.05 10.95,51.42 28.05,-1.51 50.63,-3.03 73.19,-3.03 19.85,0 46.52,0.76 71.15,3.03 -1.37,-3.78 -1.37,-6.81 -1.37,-10.59 0,-3.02 0,-5.29 1.37,-8.31 -6.15,0 -15.05,2.27 -23.26,2.27 -8.89,0 -17.1,-2.27 -17.79,-13.62 -4.1,-71.84 -4.78,-142.927 -4.78,-214.767 0,-86.207 0,-172.418 4.78,-258.629 0.69,-11.344 8.22,-14.371 16.42,-14.371 8.21,0 18.48,3.027 24.63,3.027 -0.69,-3.785 -0.69,-6.805 -0.69,-9.828 0,-3.785 0,-7.563 0.69,-9.078 -24.63,2.269 -57.46,3.023 -84.14,3.023" /><path
         id="path52"
         style="fill:#231f20;fill-opacity:1;fill-rule:nonzero;stroke:none"
         d="m 4375.39,644.25 c 0,-18.148 0.68,-34.785 2.05,-49.156 -54.04,2.269 -106.71,3.023 -158.69,3.023 -60.89,0 -128.61,-0.754 -190.86,-3.023 0.69,2.269 1.37,5.293 1.37,9.078 0,3.023 -0.68,6.043 -1.37,9.828 8.21,-0.758 17.11,-3.027 24.62,-3.027 8.22,0 15.05,3.785 15.74,19.664 2.05,53.691 2.73,145.953 2.73,237.457 0,89.988 -0.68,178.466 -3.42,229.136 0,12.86 -7.52,15.88 -15.73,15.88 -8.2,0 -17.1,-3.02 -23.94,-3.02 0.69,3.77 1.37,6.04 1.37,9.07 0,3.02 -0.68,6.05 -1.37,9.83 38.31,-2.27 82.09,-3.03 119.03,-3.03 70.45,0 139.54,3.03 211.37,3.03 -1.37,-15.13 -2.74,-34.79 -2.74,-55.2 0,-39.33 3.42,-83.188 6.84,-111.173 -2.05,0 -3.42,0.758 -5.47,0.758 -2.74,0 -4.79,-0.758 -7.53,-1.512 -15.05,130.827 -68.4,148.977 -155.27,148.977 -12.32,0 -21.21,-0.75 -23.95,-3.78 -3.42,-3.02 -4.1,-9.08 -4.78,-19.66 -2.74,-62.01 -4.79,-124.783 -4.79,-187.545 0,-23.449 2.05,-24.957 17.1,-24.957 69.08,0 86.88,33.274 86.88,117.211 2.05,-0.75 5.46,-0.75 8.2,-0.75 2.73,0 4.79,0 7.53,0.75 -3.42,-45.371 -5.48,-89.988 -5.48,-135.359 0,-39.324 1.37,-78.648 5.48,-118.73 -2.05,0.757 -4.8,0.757 -7.53,0.757 -2.74,0 -5.47,0 -8.2,-0.757 0,101.335 -21.22,122.507 -86.88,122.507 -16.42,0 -17.1,-2.265 -17.1,-24.195 0,-65.793 2.05,-131.582 4.79,-197.375 1.36,-24.199 2.05,-24.957 52.67,-24.957 97.13,0 147.07,46.887 149.12,164.102 2.05,-0.758 4.79,-0.758 6.15,-0.758 2.74,0 6.17,0 8.22,0.758 -2.74,-31.762 -6.16,-86.969 -6.16,-133.852" /><path
         id="path54"
         style="fill:#231f20;fill-opacity:1;fill-rule:nonzero;stroke:none"
         d="m 4781.01,1113.86 c -20.53,0 -24.63,-3.02 -27.36,-128.555 -0.69,-15.121 -0.69,-31 -0.69,-46.883 0,-116.457 1.37,-233.672 2.74,-350.133 -5.47,0 -21.2,-1.516 -24.63,-4.535 -4.79,15.879 -12.99,34.027 -21.2,50.664 -63.62,126.293 -148.44,265.437 -220.95,393.242 -4.78,8.31 -5.48,18.14 -8.9,26.46 -2.05,3.78 -3.41,5.29 -4.78,5.29 -2.05,0 -2.74,-3.02 -2.74,-6.8 0,-6.81 2.74,-19.66 2.74,-19.66 V 876.406 c 0,-79.398 0,-144.437 1.37,-164.093 5.47,-97.555 8.89,-100.583 36.94,-100.583 4.78,0 10.94,0.758 17.1,1.512 v -18.148 c -19.16,1.515 -42.41,2.269 -64.31,2.269 -20.51,0 -40.35,-0.754 -56.09,-2.269 v 18.148 c 8.21,-1.512 14.36,-2.269 19.16,-2.269 18.47,0 22.57,6.05 24.62,102.093 0.69,43.86 0.69,124.02 0.69,192.082 v 43.86 c 0,52.182 -0.69,120.242 -6.84,149.732 -2.74,12.1 -7.52,15.12 -15.74,15.12 -6.83,0 -15.05,-2.26 -21.89,-3.02 0.69,3.02 1.38,6.05 1.38,8.32 0,3.02 -0.69,6.05 -1.38,9.83 16.42,-2.27 39.68,-3.03 63.62,-3.03 26.68,0 54.05,1.52 74.56,3.03 38.31,-82.43 113.56,-201.912 168.97,-300.982 2.73,-5.293 10.93,-25.707 11.62,-29.492 1.37,-3.778 3.43,-6.047 4.79,-6.047 1.37,0 2.05,1.511 2.05,6.047 0,62.769 -0.68,125.539 -2.73,188.3 -5.48,124.024 -7.53,126.294 -31.47,126.294 -5.47,0 -11.63,-0.75 -19.84,-2.27 0.68,3.78 1.37,6.05 1.37,9.07 0,2.27 -0.69,5.3 -1.37,9.08 15.05,-2.27 34.88,-3.03 54.73,-3.03 21.2,0 43.09,1.52 61.56,3.03 -0.68,-3.78 -1.37,-6.81 -1.37,-9.83 0,-2.27 0,-5.3 1.37,-8.32 -6.84,1.52 -13,3.02 -17.1,3.02" /><path
         id="path56"
         style="fill:#231f20;fill-opacity:1;fill-rule:nonzero;stroke:none"
         d="m 5187.31,959.598 c -2.05,0 -4.1,-0.758 -6.15,-1.516 -6.85,104.358 -47.2,152.758 -93.04,152.758 h -12.3 c -10.95,0 -12.32,-0.75 -13,-12.86 -3.42,-67.3 -4.8,-148.218 -4.8,-228.375 0,-88.48 2.06,-175.445 4.8,-241.992 0.68,-13.613 7.52,-16.64 16.41,-16.64 8.21,0 17.1,3.027 24.63,3.027 -0.68,-3.027 -1.37,-6.805 -1.37,-9.828 0,-3.027 0.69,-6.055 1.37,-9.078 -25.99,2.269 -54.72,3.023 -83.45,3.023 -32.84,0 -66.36,-1.508 -95.78,-3.023 0.69,3.023 0.69,6.808 0.69,9.832 0,3.781 0,6.804 -0.69,9.074 6.85,0 15.74,-3.027 23.27,-3.027 8.89,0 16.41,3.027 16.41,16.64 2.74,52.938 3.42,147.461 3.42,240.481 0,89.988 -0.68,179.226 -3.42,229.886 0,10.59 -2.05,12.86 -13.68,12.86 h -7.52 c -47.89,0 -94.4,-56.72 -98.51,-152.758 -2.73,0.758 -4.79,0.758 -6.84,0.758 -2.05,0 -4.1,0 -6.84,-0.758 2.74,30.25 4.1,59.738 4.1,88.478 0,27.23 -1.36,54.45 -4.1,82.43 58.15,-2.27 127.92,-3.03 196.32,-3.03 60.2,0 119.72,0.76 167.6,3.03 -2.05,-28.74 -3.42,-57.47 -3.42,-86.21 0,-28.73 1.37,-56.717 3.42,-84.698 -2.74,0.758 -4.8,1.516 -7.53,1.516" /></g></g></svg>